<svg width="1757" height="277" viewBox="0 0 1757 277" fill="none" xmlns="http://www.w3.org/2000/svg">
<rect x="961.469" y="52" width="47.5854" height="177" fill="#1AC6B2" fill-opacity="0.53"/>
<rect width="1757" height="277" fill="#17B8A6"/>
<path fill-rule="evenodd" clip-rule="evenodd" d="M1256.74 0C1259.13 13.9793 1267.09 29.2899 1282.09 46C1375.8 150.4 1436.64 112.5 1455.35 80.5C1466.03 53.6685 1483.45 18.3134 1500.86 0L1256.74 0ZM1698.66 277H1752.56V0L1538.12 0C1540.87 4.84715 1543.4 11.2717 1545.64 19.5C1558.77 67.6569 1534.85 98.9625 1514.75 125.278C1493.73 152.788 1476.88 174.845 1510.87 205C1564.07 252.2 1625.36 208.667 1649.36 181C1692.06 178.167 1764.66 186 1713.41 240C1700.08 254.054 1696.2 266.358 1698.66 277Z" fill="#1AC6B2" fill-opacity="0.53"/>
<path d="M539.838 108.094C539.696 106.662 539.087 105.549 538.009 104.756C536.932 103.963 535.47 103.567 533.624 103.567C532.369 103.567 531.31 103.744 530.445 104.099C529.581 104.443 528.919 104.922 528.457 105.538C528.007 106.153 527.782 106.852 527.782 107.633C527.758 108.284 527.895 108.852 528.191 109.337C528.498 109.823 528.919 110.243 529.451 110.598C529.984 110.941 530.599 111.243 531.298 111.504C531.996 111.752 532.742 111.965 533.535 112.143L536.802 112.924C538.388 113.279 539.844 113.753 541.17 114.344C542.496 114.936 543.644 115.664 544.615 116.528C545.585 117.393 546.337 118.411 546.869 119.582C547.414 120.754 547.692 122.098 547.704 123.613C547.692 125.838 547.124 127.768 545.999 129.401C544.887 131.023 543.277 132.284 541.17 133.183C539.075 134.071 536.548 134.515 533.588 134.515C530.653 134.515 528.096 134.065 525.918 133.165C523.752 132.266 522.059 130.934 520.84 129.17C519.632 127.395 518.999 125.199 518.94 122.583H526.379C526.462 123.802 526.811 124.82 527.427 125.637C528.054 126.442 528.889 127.052 529.931 127.466C530.984 127.868 532.174 128.07 533.499 128.07C534.802 128.07 535.932 127.88 536.891 127.501C537.861 127.123 538.613 126.596 539.146 125.921C539.678 125.246 539.945 124.471 539.945 123.595C539.945 122.778 539.702 122.092 539.217 121.536C538.743 120.979 538.045 120.506 537.122 120.115C536.21 119.724 535.092 119.369 533.766 119.05L529.806 118.055C526.74 117.31 524.32 116.144 522.544 114.558C520.769 112.971 519.887 110.835 519.899 108.148C519.887 105.946 520.473 104.022 521.656 102.377C522.852 100.732 524.491 99.4474 526.575 98.5241C528.658 97.6009 531.026 97.1392 533.677 97.1392C536.376 97.1392 538.731 97.6009 540.744 98.5241C542.768 99.4474 544.342 100.732 545.467 102.377C546.591 104.022 547.171 105.928 547.207 108.094H539.838ZM565.162 134.533C562.357 134.533 559.942 133.964 557.918 132.828C555.906 131.68 554.355 130.058 553.266 127.963C552.177 125.856 551.632 123.364 551.632 120.488C551.632 117.683 552.177 115.22 553.266 113.102C554.355 110.983 555.888 109.331 557.865 108.148C559.853 106.964 562.185 106.372 564.86 106.372C566.66 106.372 568.335 106.662 569.885 107.242C571.448 107.81 572.809 108.669 573.969 109.817C575.141 110.965 576.052 112.409 576.703 114.149C577.355 115.877 577.68 117.902 577.68 120.222V122.299H554.651V117.612H570.56C570.56 116.522 570.323 115.558 569.85 114.717C569.376 113.877 568.719 113.22 567.879 112.746C567.05 112.261 566.086 112.018 564.985 112.018C563.837 112.018 562.819 112.285 561.931 112.817C561.055 113.338 560.368 114.043 559.871 114.93C559.374 115.806 559.119 116.783 559.108 117.86V122.317C559.108 123.666 559.356 124.832 559.853 125.815C560.362 126.797 561.078 127.555 562.002 128.087C562.925 128.62 564.02 128.886 565.287 128.886C566.127 128.886 566.896 128.768 567.595 128.531C568.293 128.295 568.891 127.939 569.388 127.466C569.885 126.992 570.264 126.412 570.525 125.726L577.52 126.188C577.165 127.868 576.437 129.336 575.336 130.591C574.247 131.834 572.839 132.804 571.11 133.503C569.394 134.189 567.411 134.533 565.162 134.533ZM590.18 97.6364V134H582.616V97.6364H590.18ZM604.016 134.515C602.276 134.515 600.725 134.213 599.364 133.609C598.003 132.994 596.926 132.088 596.133 130.893C595.351 129.685 594.961 128.182 594.961 126.383C594.961 124.868 595.239 123.595 595.795 122.565C596.352 121.536 597.109 120.707 598.068 120.08C599.027 119.452 600.116 118.979 601.335 118.659C602.566 118.339 603.856 118.115 605.206 117.984C606.792 117.819 608.07 117.665 609.041 117.523C610.012 117.369 610.716 117.144 611.154 116.848C611.592 116.552 611.811 116.114 611.811 115.534V115.428C611.811 114.303 611.456 113.433 610.746 112.817C610.047 112.202 609.053 111.894 607.763 111.894C606.401 111.894 605.318 112.196 604.513 112.8C603.708 113.392 603.176 114.137 602.915 115.037L595.92 114.469C596.275 112.812 596.973 111.379 598.015 110.172C599.056 108.953 600.4 108.018 602.045 107.366C603.702 106.704 605.62 106.372 607.798 106.372C609.313 106.372 610.763 106.55 612.148 106.905C613.545 107.26 614.782 107.81 615.859 108.556C616.948 109.302 617.806 110.261 618.434 111.433C619.061 112.593 619.375 113.983 619.375 115.605V134H612.202V130.218H611.988C611.55 131.07 610.965 131.822 610.231 132.473C609.497 133.112 608.615 133.615 607.585 133.982C606.555 134.337 605.366 134.515 604.016 134.515ZM606.182 129.295C607.295 129.295 608.278 129.076 609.13 128.638C609.982 128.188 610.651 127.584 611.136 126.827C611.622 126.069 611.864 125.211 611.864 124.252V121.358C611.627 121.512 611.302 121.654 610.888 121.784C610.485 121.902 610.029 122.015 609.52 122.121C609.011 122.216 608.502 122.305 607.993 122.388C607.484 122.459 607.023 122.524 606.608 122.583C605.721 122.713 604.945 122.92 604.282 123.205C603.62 123.489 603.105 123.873 602.738 124.359C602.371 124.832 602.187 125.424 602.187 126.134C602.187 127.164 602.56 127.951 603.306 128.496C604.064 129.028 605.022 129.295 606.182 129.295ZM625.243 134V106.727H632.452V111.539H632.771C633.34 109.941 634.287 108.68 635.612 107.757C636.938 106.834 638.524 106.372 640.371 106.372C642.241 106.372 643.833 106.84 645.147 107.775C646.461 108.698 647.337 109.953 647.775 111.539H648.059C648.615 109.977 649.622 108.728 651.078 107.793C652.545 106.846 654.28 106.372 656.28 106.372C658.825 106.372 660.891 107.183 662.477 108.805C664.075 110.415 664.874 112.699 664.874 115.658V134H657.328V117.15C657.328 115.635 656.925 114.498 656.12 113.741C655.315 112.983 654.309 112.604 653.102 112.604C651.729 112.604 650.657 113.042 649.888 113.918C649.119 114.782 648.734 115.925 648.734 117.345V134H641.401V116.99C641.401 115.652 641.016 114.587 640.247 113.794C639.489 113.001 638.489 112.604 637.246 112.604C636.405 112.604 635.648 112.817 634.973 113.244C634.31 113.658 633.784 114.244 633.393 115.001C633.002 115.747 632.807 116.623 632.807 117.629V134H625.243ZM678.626 134.515C676.885 134.515 675.335 134.213 673.974 133.609C672.612 132.994 671.535 132.088 670.742 130.893C669.961 129.685 669.57 128.182 669.57 126.383C669.57 124.868 669.848 123.595 670.405 122.565C670.961 121.536 671.719 120.707 672.677 120.08C673.636 119.452 674.725 118.979 675.944 118.659C677.175 118.339 678.466 118.115 679.815 117.984C681.401 117.819 682.68 117.665 683.65 117.523C684.621 117.369 685.325 117.144 685.763 116.848C686.201 116.552 686.42 116.114 686.42 115.534V115.428C686.42 114.303 686.065 113.433 685.355 112.817C684.657 112.202 683.662 111.894 682.372 111.894C681.011 111.894 679.928 112.196 679.123 112.8C678.318 113.392 677.785 114.137 677.525 115.037L670.529 114.469C670.884 112.812 671.582 111.379 672.624 110.172C673.666 108.953 675.009 108.018 676.655 107.366C678.312 106.704 680.229 106.372 682.407 106.372C683.923 106.372 685.373 106.55 686.758 106.905C688.154 107.26 689.391 107.81 690.469 108.556C691.558 109.302 692.416 110.261 693.043 111.433C693.671 112.593 693.984 113.983 693.984 115.605V134H686.811V130.218H686.598C686.16 131.07 685.574 131.822 684.84 132.473C684.106 133.112 683.224 133.615 682.194 133.982C681.165 134.337 679.975 134.515 678.626 134.515ZM680.792 129.295C681.904 129.295 682.887 129.076 683.739 128.638C684.591 128.188 685.26 127.584 685.746 126.827C686.231 126.069 686.474 125.211 686.474 124.252V121.358C686.237 121.512 685.911 121.654 685.497 121.784C685.095 121.902 684.639 122.015 684.13 122.121C683.621 122.216 683.112 122.305 682.603 122.388C682.094 122.459 681.632 122.524 681.218 122.583C680.33 122.713 679.555 122.92 678.892 123.205C678.229 123.489 677.714 123.873 677.347 124.359C676.98 124.832 676.797 125.424 676.797 126.134C676.797 127.164 677.17 127.951 677.915 128.496C678.673 129.028 679.632 129.295 680.792 129.295ZM714.359 106.727V112.409H697.935V106.727H714.359ZM701.664 100.193H709.227V125.619C709.227 126.318 709.334 126.862 709.547 127.253C709.76 127.632 710.056 127.898 710.435 128.052C710.825 128.206 711.275 128.283 711.784 128.283C712.139 128.283 712.494 128.253 712.85 128.194C713.205 128.123 713.477 128.07 713.666 128.034L714.856 133.663C714.477 133.781 713.945 133.917 713.258 134.071C712.571 134.237 711.737 134.337 710.754 134.373C708.932 134.444 707.334 134.201 705.96 133.645C704.599 133.089 703.54 132.224 702.782 131.053C702.025 129.881 701.652 128.401 701.664 126.614V100.193ZM743.891 134H731V97.6364H743.998C747.655 97.6364 750.804 98.3643 753.444 99.8203C756.083 101.264 758.113 103.342 759.534 106.053C760.966 108.763 761.682 112.007 761.682 115.783C761.682 119.571 760.966 122.826 759.534 125.548C758.113 128.271 756.071 130.36 753.408 131.816C750.757 133.272 747.584 134 743.891 134ZM738.689 127.413H743.571C745.844 127.413 747.756 127.01 749.306 126.205C750.869 125.388 752.041 124.128 752.822 122.423C753.615 120.707 754.012 118.493 754.012 115.783C754.012 113.096 753.615 110.9 752.822 109.195C752.041 107.491 750.875 106.236 749.324 105.431C747.774 104.626 745.862 104.224 743.589 104.224H738.689V127.413ZM775.012 134.515C773.272 134.515 771.722 134.213 770.36 133.609C768.999 132.994 767.922 132.088 767.129 130.893C766.347 129.685 765.957 128.182 765.957 126.383C765.957 124.868 766.235 123.595 766.791 122.565C767.348 121.536 768.105 120.707 769.064 120.08C770.023 119.452 771.112 118.979 772.331 118.659C773.562 118.339 774.852 118.115 776.202 117.984C777.788 117.819 779.066 117.665 780.037 117.523C781.008 117.369 781.712 117.144 782.15 116.848C782.588 116.552 782.807 116.114 782.807 115.534V115.428C782.807 114.303 782.452 113.433 781.742 112.817C781.043 112.202 780.049 111.894 778.759 111.894C777.397 111.894 776.314 112.196 775.509 112.8C774.704 113.392 774.172 114.137 773.911 115.037L766.916 114.469C767.271 112.812 767.969 111.379 769.011 110.172C770.052 108.953 771.396 108.018 773.041 107.366C774.699 106.704 776.616 106.372 778.794 106.372C780.309 106.372 781.759 106.55 783.144 106.905C784.541 107.26 785.778 107.81 786.855 108.556C787.944 109.302 788.802 110.261 789.43 111.433C790.057 112.593 790.371 113.983 790.371 115.605V134H783.198V130.218H782.985C782.547 131.07 781.961 131.822 781.227 132.473C780.493 133.112 779.611 133.615 778.581 133.982C777.551 134.337 776.362 134.515 775.012 134.515ZM777.178 129.295C778.291 129.295 779.274 129.076 780.126 128.638C780.978 128.188 781.647 127.584 782.132 126.827C782.618 126.069 782.86 125.211 782.86 124.252V121.358C782.624 121.512 782.298 121.654 781.884 121.784C781.481 121.902 781.026 122.015 780.517 122.121C780.008 122.216 779.499 122.305 778.99 122.388C778.481 122.459 778.019 122.524 777.605 122.583C776.717 122.713 775.941 122.92 775.279 123.205C774.616 123.489 774.101 123.873 773.734 124.359C773.367 124.832 773.183 125.424 773.183 126.134C773.183 127.164 773.556 127.951 774.302 128.496C775.06 129.028 776.018 129.295 777.178 129.295ZM810.746 106.727V112.409H794.322V106.727H810.746ZM798.05 100.193H805.614V125.619C805.614 126.318 805.721 126.862 805.934 127.253C806.147 127.632 806.443 127.898 806.822 128.052C807.212 128.206 807.662 128.283 808.171 128.283C808.526 128.283 808.881 128.253 809.236 128.194C809.591 128.123 809.864 128.07 810.053 128.034L811.243 133.663C810.864 133.781 810.331 133.917 809.645 134.071C808.958 134.237 808.124 134.337 807.141 134.373C805.318 134.444 803.72 134.201 802.347 133.645C800.986 133.089 799.926 132.224 799.169 131.053C798.411 129.881 798.038 128.401 798.05 126.614V100.193ZM823.45 134.515C821.71 134.515 820.159 134.213 818.798 133.609C817.436 132.994 816.359 132.088 815.566 130.893C814.785 129.685 814.394 128.182 814.394 126.383C814.394 124.868 814.673 123.595 815.229 122.565C815.785 121.536 816.543 120.707 817.502 120.08C818.46 119.452 819.549 118.979 820.769 118.659C822 118.339 823.29 118.115 824.639 117.984C826.226 117.819 827.504 117.665 828.475 117.523C829.445 117.369 830.15 117.144 830.588 116.848C831.026 116.552 831.244 116.114 831.244 115.534V115.428C831.244 114.303 830.889 113.433 830.179 112.817C829.481 112.202 828.486 111.894 827.196 111.894C825.835 111.894 824.752 112.196 823.947 112.8C823.142 113.392 822.609 114.137 822.349 115.037L815.353 114.469C815.708 112.812 816.407 111.379 817.448 110.172C818.49 108.953 819.834 108.018 821.479 107.366C823.136 106.704 825.054 106.372 827.232 106.372C828.747 106.372 830.197 106.55 831.582 106.905C832.979 107.26 834.216 107.81 835.293 108.556C836.382 109.302 837.24 110.261 837.867 111.433C838.495 112.593 838.808 113.983 838.808 115.605V134H831.635V130.218H831.422C830.984 131.07 830.398 131.822 829.664 132.473C828.93 133.112 828.048 133.615 827.019 133.982C825.989 134.337 824.799 134.515 823.45 134.515ZM825.616 129.295C826.729 129.295 827.711 129.076 828.563 128.638C829.416 128.188 830.084 127.584 830.57 126.827C831.055 126.069 831.298 125.211 831.298 124.252V121.358C831.061 121.512 830.736 121.654 830.321 121.784C829.919 121.902 829.463 122.015 828.954 122.121C828.445 122.216 827.936 122.305 827.427 122.388C826.918 122.459 826.456 122.524 826.042 122.583C825.154 122.713 824.379 122.92 823.716 123.205C823.053 123.489 822.538 123.873 822.171 124.359C821.804 124.832 821.621 125.424 821.621 126.134C821.621 127.164 821.994 127.951 822.74 128.496C823.497 129.028 824.456 129.295 825.616 129.295ZM852.241 118.233V134H844.677V106.727H851.885V111.539H852.205C852.809 109.953 853.821 108.698 855.241 107.775C856.662 106.84 858.384 106.372 860.408 106.372C862.302 106.372 863.953 106.786 865.362 107.615C866.771 108.444 867.866 109.627 868.647 111.166C869.428 112.693 869.819 114.516 869.819 116.635V134H862.255V117.984C862.267 116.315 861.84 115.013 860.976 114.078C860.112 113.131 858.923 112.658 857.407 112.658C856.39 112.658 855.49 112.877 854.709 113.315C853.939 113.753 853.336 114.392 852.898 115.232C852.471 116.061 852.252 117.061 852.241 118.233ZM888.067 144.795C885.617 144.795 883.516 144.458 881.764 143.783C880.024 143.121 878.639 142.215 877.609 141.067C876.579 139.919 875.91 138.628 875.603 137.196L882.598 136.255C882.811 136.799 883.149 137.308 883.61 137.782C884.072 138.255 884.682 138.634 885.439 138.918C886.209 139.214 887.144 139.362 888.245 139.362C889.89 139.362 891.245 138.96 892.311 138.155C893.388 137.362 893.926 136.03 893.926 134.16V129.17H893.607C893.275 129.928 892.778 130.644 892.115 131.319C891.453 131.994 890.6 132.544 889.559 132.97C888.517 133.396 887.274 133.609 885.83 133.609C883.782 133.609 881.918 133.136 880.237 132.189C878.568 131.23 877.236 129.768 876.242 127.803C875.259 125.826 874.768 123.329 874.768 120.31C874.768 117.221 875.271 114.64 876.277 112.569C877.283 110.497 878.621 108.947 880.29 107.917C881.971 106.887 883.812 106.372 885.812 106.372C887.339 106.372 888.618 106.633 889.647 107.153C890.677 107.662 891.506 108.302 892.133 109.071C892.772 109.829 893.264 110.574 893.607 111.308H893.891V106.727H901.402V134.266C901.402 136.586 900.833 138.528 899.697 140.09C898.561 141.653 896.986 142.825 894.974 143.606C892.974 144.399 890.671 144.795 888.067 144.795ZM888.227 127.928C889.446 127.928 890.476 127.626 891.316 127.022C892.169 126.406 892.82 125.531 893.27 124.394C893.731 123.246 893.962 121.873 893.962 120.275C893.962 118.677 893.737 117.292 893.287 116.12C892.837 114.936 892.186 114.019 891.334 113.368C890.482 112.717 889.446 112.391 888.227 112.391C886.984 112.391 885.936 112.729 885.084 113.403C884.232 114.066 883.587 114.99 883.149 116.173C882.711 117.357 882.492 118.724 882.492 120.275C882.492 121.849 882.711 123.21 883.149 124.359C883.599 125.495 884.244 126.377 885.084 127.004C885.936 127.62 886.984 127.928 888.227 127.928ZM929.043 134.444C926.971 134.444 925.095 133.911 923.414 132.846C921.745 131.769 920.419 130.188 919.437 128.105C918.466 126.01 917.981 123.441 917.981 120.399C917.981 117.274 918.484 114.676 919.49 112.604C920.496 110.521 921.834 108.964 923.503 107.935C925.184 106.893 927.025 106.372 929.025 106.372C930.552 106.372 931.825 106.633 932.843 107.153C933.872 107.662 934.701 108.302 935.328 109.071C935.968 109.829 936.453 110.574 936.784 111.308H937.015V97.6364H944.561V134H937.104V129.632H936.784C936.429 130.39 935.926 131.141 935.275 131.887C934.636 132.621 933.801 133.231 932.771 133.716C931.753 134.201 930.511 134.444 929.043 134.444ZM931.44 128.425C932.659 128.425 933.689 128.093 934.529 127.43C935.382 126.756 936.033 125.815 936.482 124.607C936.944 123.4 937.175 121.985 937.175 120.364C937.175 118.742 936.95 117.333 936.5 116.138C936.05 114.942 935.399 114.019 934.547 113.368C933.695 112.717 932.659 112.391 931.44 112.391C930.197 112.391 929.149 112.729 928.297 113.403C927.445 114.078 926.8 115.013 926.362 116.209C925.924 117.404 925.705 118.789 925.705 120.364C925.705 121.95 925.924 123.353 926.362 124.572C926.811 125.779 927.457 126.726 928.297 127.413C929.149 128.087 930.197 128.425 931.44 128.425ZM950.78 134V106.727H958.344V134H950.78ZM954.58 103.212C953.455 103.212 952.491 102.839 951.686 102.093C950.893 101.335 950.496 100.43 950.496 99.3764C950.496 98.3348 950.893 97.4411 951.686 96.6953C952.491 95.9377 953.455 95.5589 954.58 95.5589C955.704 95.5589 956.663 95.9377 957.456 96.6953C958.261 97.4411 958.664 98.3348 958.664 99.3764C958.664 100.43 958.261 101.335 957.456 102.093C956.663 102.839 955.704 103.212 954.58 103.212ZM976.118 134V97.6364H1000.62V103.975H983.806V112.64H999.36V118.979H983.806V127.661H1000.69V134H976.118ZM1016.64 134.444C1014.57 134.444 1012.69 133.911 1011.01 132.846C1009.34 131.769 1008.02 130.188 1007.03 128.105C1006.06 126.01 1005.58 123.441 1005.58 120.399C1005.58 117.274 1006.08 114.676 1007.09 112.604C1008.09 110.521 1009.43 108.964 1011.1 107.935C1012.78 106.893 1014.62 106.372 1016.62 106.372C1018.15 106.372 1019.42 106.633 1020.44 107.153C1021.47 107.662 1022.3 108.302 1022.93 109.071C1023.57 109.829 1024.05 110.574 1024.38 111.308H1024.61V97.6364H1032.16V134H1024.7V129.632H1024.38C1024.03 130.39 1023.52 131.141 1022.87 131.887C1022.23 132.621 1021.4 133.231 1020.37 133.716C1019.35 134.201 1018.11 134.444 1016.64 134.444ZM1019.04 128.425C1020.26 128.425 1021.29 128.093 1022.13 127.43C1022.98 126.756 1023.63 125.815 1024.08 124.607C1024.54 123.4 1024.77 121.985 1024.77 120.364C1024.77 118.742 1024.55 117.333 1024.1 116.138C1023.65 114.942 1023 114.019 1022.14 113.368C1021.29 112.717 1020.26 112.391 1019.04 112.391C1017.79 112.391 1016.75 112.729 1015.89 113.403C1015.04 114.078 1014.4 115.013 1013.96 116.209C1013.52 117.404 1013.3 118.789 1013.3 120.364C1013.3 121.95 1013.52 123.353 1013.96 124.572C1014.41 125.779 1015.05 126.726 1015.89 127.413C1016.75 128.087 1017.79 128.425 1019.04 128.425ZM1055.87 122.388V106.727H1063.43V134H1056.17V129.046H1055.88C1055.27 130.644 1054.25 131.929 1052.81 132.899C1051.39 133.87 1049.66 134.355 1047.61 134.355C1045.79 134.355 1044.18 133.941 1042.8 133.112C1041.41 132.284 1040.33 131.106 1039.55 129.579C1038.78 128.052 1038.39 126.223 1038.38 124.092V106.727H1045.94V122.743C1045.95 124.353 1046.39 125.625 1047.24 126.56C1048.09 127.496 1049.23 127.963 1050.66 127.963C1051.58 127.963 1052.43 127.756 1053.22 127.342C1054.01 126.915 1054.65 126.288 1055.14 125.46C1055.64 124.631 1055.88 123.607 1055.87 122.388ZM1089.35 108.094C1089.21 106.662 1088.6 105.549 1087.52 104.756C1086.44 103.963 1084.98 103.567 1083.14 103.567C1081.88 103.567 1080.82 103.744 1079.96 104.099C1079.09 104.443 1078.43 104.922 1077.97 105.538C1077.52 106.153 1077.29 106.852 1077.29 107.633C1077.27 108.284 1077.41 108.852 1077.7 109.337C1078.01 109.823 1078.43 110.243 1078.96 110.598C1079.5 110.941 1080.11 111.243 1080.81 111.504C1081.51 111.752 1082.25 111.965 1083.05 112.143L1086.31 112.924C1087.9 113.279 1089.36 113.753 1090.68 114.344C1092.01 114.936 1093.16 115.664 1094.13 116.528C1095.1 117.393 1095.85 118.411 1096.38 119.582C1096.93 120.754 1097.2 122.098 1097.22 123.613C1097.2 125.838 1096.64 127.768 1095.51 129.401C1094.4 131.023 1092.79 132.284 1090.68 133.183C1088.59 134.071 1086.06 134.515 1083.1 134.515C1080.16 134.515 1077.61 134.065 1075.43 133.165C1073.26 132.266 1071.57 130.934 1070.35 129.17C1069.14 127.395 1068.51 125.199 1068.45 122.583H1075.89C1075.97 123.802 1076.32 124.82 1076.94 125.637C1077.57 126.442 1078.4 127.052 1079.44 127.466C1080.5 127.868 1081.69 128.07 1083.01 128.07C1084.31 128.07 1085.44 127.88 1086.4 127.501C1087.37 127.123 1088.12 126.596 1088.66 125.921C1089.19 125.246 1089.46 124.471 1089.46 123.595C1089.46 122.778 1089.21 122.092 1088.73 121.536C1088.26 120.979 1087.56 120.506 1086.63 120.115C1085.72 119.724 1084.6 119.369 1083.28 119.05L1079.32 118.055C1076.25 117.31 1073.83 116.144 1072.06 114.558C1070.28 112.971 1069.4 110.835 1069.41 108.148C1069.4 105.946 1069.98 104.022 1071.17 102.377C1072.36 100.732 1074 99.4474 1076.09 98.5241C1078.17 97.6009 1080.54 97.1392 1083.19 97.1392C1085.89 97.1392 1088.24 97.6009 1090.26 98.5241C1092.28 99.4474 1093.85 100.732 1094.98 102.377C1096.1 104.022 1096.68 105.928 1096.72 108.094H1089.35ZM1114.57 134.533C1111.77 134.533 1109.37 133.941 1107.36 132.757C1105.36 131.562 1103.82 129.904 1102.74 127.786C1101.68 125.667 1101.14 123.228 1101.14 120.47C1101.14 117.677 1101.68 115.226 1102.76 113.119C1103.85 111 1105.39 109.349 1107.39 108.165C1109.39 106.97 1111.77 106.372 1114.53 106.372C1116.91 106.372 1118.99 106.804 1120.78 107.668C1122.57 108.532 1123.98 109.746 1125.03 111.308C1126.07 112.871 1126.64 114.705 1126.75 116.812H1119.61C1119.41 115.451 1118.88 114.356 1118.01 113.528C1117.16 112.687 1116.04 112.267 1114.66 112.267C1113.48 112.267 1112.46 112.587 1111.58 113.226C1110.72 113.853 1110.05 114.771 1109.56 115.978C1109.08 117.185 1108.83 118.647 1108.83 120.364C1108.83 122.104 1109.07 123.583 1109.54 124.803C1110.03 126.022 1110.71 126.951 1111.58 127.59C1112.46 128.229 1113.48 128.549 1114.66 128.549C1115.52 128.549 1116.3 128.371 1116.98 128.016C1117.68 127.661 1118.25 127.146 1118.7 126.472C1119.17 125.785 1119.47 124.962 1119.61 124.004H1126.75C1126.63 126.087 1126.06 127.922 1125.04 129.508C1124.04 131.082 1122.65 132.313 1120.87 133.201C1119.1 134.089 1116.99 134.533 1114.57 134.533ZM1139.37 134.515C1137.63 134.515 1136.08 134.213 1134.72 133.609C1133.35 132.994 1132.28 132.088 1131.48 130.893C1130.7 129.685 1130.31 128.182 1130.31 126.383C1130.31 124.868 1130.59 123.595 1131.15 122.565C1131.7 121.536 1132.46 120.707 1133.42 120.08C1134.38 119.452 1135.47 118.979 1136.69 118.659C1137.92 118.339 1139.21 118.115 1140.56 117.984C1142.14 117.819 1143.42 117.665 1144.39 117.523C1145.36 117.369 1146.07 117.144 1146.51 116.848C1146.94 116.552 1147.16 116.114 1147.16 115.534V115.428C1147.16 114.303 1146.81 113.433 1146.1 112.817C1145.4 112.202 1144.4 111.894 1143.11 111.894C1141.75 111.894 1140.67 112.196 1139.86 112.8C1139.06 113.392 1138.53 114.137 1138.27 115.037L1131.27 114.469C1131.63 112.812 1132.32 111.379 1133.37 110.172C1134.41 108.953 1135.75 108.018 1137.4 107.366C1139.05 106.704 1140.97 106.372 1143.15 106.372C1144.66 106.372 1146.11 106.55 1147.5 106.905C1148.9 107.26 1150.13 107.81 1151.21 108.556C1152.3 109.302 1153.16 110.261 1153.79 111.433C1154.41 112.593 1154.73 113.983 1154.73 115.605V134H1147.55V130.218H1147.34C1146.9 131.07 1146.32 131.822 1145.58 132.473C1144.85 133.112 1143.97 133.615 1142.94 133.982C1141.91 134.337 1140.72 134.515 1139.37 134.515ZM1141.53 129.295C1142.65 129.295 1143.63 129.076 1144.48 128.638C1145.33 128.188 1146 127.584 1146.49 126.827C1146.97 126.069 1147.22 125.211 1147.22 124.252V121.358C1146.98 121.512 1146.65 121.654 1146.24 121.784C1145.84 121.902 1145.38 122.015 1144.87 122.121C1144.36 122.216 1143.85 122.305 1143.34 122.388C1142.84 122.459 1142.37 122.524 1141.96 122.583C1141.07 122.713 1140.3 122.92 1139.63 123.205C1138.97 123.489 1138.46 123.873 1138.09 124.359C1137.72 124.832 1137.54 125.424 1137.54 126.134C1137.54 127.164 1137.91 127.951 1138.66 128.496C1139.42 129.028 1140.37 129.295 1141.53 129.295ZM1168.16 118.233V134H1160.59V106.727H1167.8V111.539H1168.12C1168.73 109.953 1169.74 108.698 1171.16 107.775C1172.58 106.84 1174.3 106.372 1176.33 106.372C1178.22 106.372 1179.87 106.786 1181.28 107.615C1182.69 108.444 1183.78 109.627 1184.56 111.166C1185.35 112.693 1185.74 114.516 1185.74 116.635V134H1178.17V117.984C1178.18 116.315 1177.76 115.013 1176.89 114.078C1176.03 113.131 1174.84 112.658 1173.33 112.658C1172.31 112.658 1171.41 112.877 1170.63 113.315C1169.86 113.753 1169.25 114.392 1168.82 115.232C1168.39 116.061 1168.17 117.061 1168.16 118.233Z" fill="white"/>
<path d="M518.695 153.545H521.116L525.957 161.693H526.161L531.002 153.545H533.423L527.116 163.807V171H525.002V163.807L518.695 153.545ZM543.173 165.648V157.909H545.184V171H543.173V168.784H543.036C542.73 169.449 542.252 170.014 541.605 170.48C540.957 170.94 540.139 171.17 539.15 171.17C538.332 171.17 537.605 170.991 536.968 170.634C536.332 170.27 535.832 169.724 535.468 168.997C535.105 168.264 534.923 167.341 534.923 166.227V157.909H536.934V166.091C536.934 167.045 537.201 167.807 537.735 168.375C538.275 168.943 538.962 169.227 539.798 169.227C540.298 169.227 540.806 169.099 541.323 168.844C541.846 168.588 542.283 168.196 542.636 167.668C542.994 167.139 543.173 166.466 543.173 165.648ZM550.743 166.227L550.709 163.739H551.118L556.845 157.909H559.334L553.232 164.08H553.061L550.743 166.227ZM548.868 171V153.545H550.879V171H548.868ZM557.186 171L552.073 164.523L553.504 163.125L559.743 171H557.186ZM575.627 153.545H577.741V166.023C577.741 167.136 577.536 168.082 577.127 168.861C576.718 169.639 576.141 170.23 575.397 170.634C574.653 171.037 573.775 171.239 572.764 171.239C571.809 171.239 570.96 171.065 570.215 170.719C569.471 170.366 568.886 169.866 568.46 169.219C568.033 168.571 567.82 167.801 567.82 166.909H569.9C569.9 167.403 570.022 167.835 570.266 168.205C570.516 168.568 570.857 168.852 571.289 169.057C571.721 169.261 572.212 169.364 572.764 169.364C573.372 169.364 573.889 169.236 574.315 168.98C574.741 168.724 575.065 168.349 575.286 167.855C575.514 167.355 575.627 166.744 575.627 166.023V153.545ZM587.193 171.273C585.931 171.273 584.843 170.994 583.928 170.438C583.019 169.875 582.318 169.091 581.823 168.085C581.335 167.074 581.09 165.898 581.09 164.557C581.09 163.216 581.335 162.034 581.823 161.011C582.318 159.983 583.005 159.182 583.886 158.608C584.772 158.028 585.806 157.739 586.988 157.739C587.67 157.739 588.343 157.852 589.008 158.08C589.673 158.307 590.278 158.676 590.823 159.188C591.369 159.693 591.803 160.364 592.127 161.199C592.451 162.034 592.613 163.062 592.613 164.284V165.136H582.522V163.398H590.568C590.568 162.659 590.42 162 590.124 161.42C589.835 160.841 589.42 160.384 588.88 160.048C588.346 159.713 587.715 159.545 586.988 159.545C586.187 159.545 585.494 159.744 584.908 160.142C584.329 160.534 583.883 161.045 583.57 161.676C583.258 162.307 583.102 162.983 583.102 163.705V164.864C583.102 165.852 583.272 166.69 583.613 167.378C583.96 168.06 584.44 168.58 585.053 168.938C585.667 169.29 586.38 169.466 587.193 169.466C587.721 169.466 588.198 169.392 588.624 169.244C589.056 169.091 589.428 168.864 589.741 168.562C590.053 168.256 590.295 167.875 590.465 167.42L592.408 167.966C592.204 168.625 591.86 169.205 591.377 169.705C590.894 170.199 590.298 170.585 589.587 170.864C588.877 171.136 588.079 171.273 587.193 171.273ZM597.684 153.545V171H595.673V153.545H597.684ZM605.22 171.307C604.391 171.307 603.638 171.151 602.962 170.838C602.286 170.52 601.749 170.062 601.351 169.466C600.953 168.864 600.754 168.136 600.754 167.284C600.754 166.534 600.902 165.926 601.198 165.46C601.493 164.989 601.888 164.619 602.382 164.352C602.877 164.085 603.422 163.886 604.019 163.756C604.621 163.619 605.226 163.511 605.834 163.432C606.629 163.33 607.274 163.253 607.769 163.202C608.269 163.145 608.632 163.051 608.859 162.92C609.092 162.79 609.209 162.562 609.209 162.239V162.17C609.209 161.33 608.979 160.676 608.519 160.21C608.064 159.744 607.374 159.511 606.448 159.511C605.487 159.511 604.734 159.722 604.189 160.142C603.644 160.562 603.26 161.011 603.038 161.489L601.129 160.807C601.47 160.011 601.925 159.392 602.493 158.949C603.067 158.5 603.692 158.187 604.368 158.011C605.05 157.83 605.72 157.739 606.379 157.739C606.8 157.739 607.283 157.79 607.828 157.892C608.379 157.989 608.911 158.19 609.422 158.497C609.939 158.804 610.368 159.267 610.709 159.886C611.05 160.506 611.22 161.335 611.22 162.375V171H609.209V169.227H609.107C608.97 169.511 608.743 169.815 608.425 170.139C608.107 170.463 607.683 170.739 607.155 170.966C606.627 171.193 605.982 171.307 605.22 171.307ZM605.527 169.5C606.323 169.5 606.993 169.344 607.538 169.031C608.09 168.719 608.504 168.315 608.783 167.821C609.067 167.327 609.209 166.807 609.209 166.261V164.42C609.124 164.523 608.936 164.616 608.646 164.702C608.362 164.781 608.033 164.852 607.658 164.915C607.288 164.972 606.928 165.023 606.575 165.068C606.229 165.108 605.948 165.142 605.732 165.17C605.209 165.239 604.72 165.349 604.266 165.503C603.817 165.651 603.453 165.875 603.175 166.176C602.902 166.472 602.766 166.875 602.766 167.386C602.766 168.085 603.024 168.614 603.541 168.972C604.064 169.324 604.726 169.5 605.527 169.5ZM614.891 157.909H616.903V171.955C616.903 172.761 616.764 173.46 616.485 174.051C616.212 174.642 615.798 175.099 615.241 175.423C614.69 175.747 613.994 175.909 613.153 175.909C613.085 175.909 613.016 175.909 612.948 175.909C612.88 175.909 612.812 175.909 612.744 175.909V174.034C612.812 174.034 612.874 174.034 612.931 174.034C612.988 174.034 613.051 174.034 613.119 174.034C613.732 174.034 614.181 173.852 614.465 173.489C614.749 173.131 614.891 172.619 614.891 171.955V157.909ZM615.88 155.727C615.488 155.727 615.15 155.594 614.866 155.327C614.587 155.06 614.448 154.739 614.448 154.364C614.448 153.989 614.587 153.668 614.866 153.401C615.15 153.134 615.488 153 615.88 153C616.272 153 616.607 153.134 616.886 153.401C617.17 153.668 617.312 153.989 617.312 154.364C617.312 154.739 617.17 155.06 616.886 155.327C616.607 155.594 616.272 155.727 615.88 155.727ZM624.439 171.307C623.609 171.307 622.857 171.151 622.181 170.838C621.504 170.52 620.967 170.062 620.57 169.466C620.172 168.864 619.973 168.136 619.973 167.284C619.973 166.534 620.121 165.926 620.416 165.46C620.712 164.989 621.107 164.619 621.601 164.352C622.095 164.085 622.641 163.886 623.237 163.756C623.84 163.619 624.445 163.511 625.053 163.432C625.848 163.33 626.493 163.253 626.987 163.202C627.487 163.145 627.851 163.051 628.078 162.92C628.311 162.79 628.428 162.562 628.428 162.239V162.17C628.428 161.33 628.198 160.676 627.737 160.21C627.283 159.744 626.592 159.511 625.666 159.511C624.706 159.511 623.953 159.722 623.408 160.142C622.862 160.562 622.479 161.011 622.257 161.489L620.348 160.807C620.689 160.011 621.144 159.392 621.712 158.949C622.286 158.5 622.911 158.187 623.587 158.011C624.269 157.83 624.939 157.739 625.598 157.739C626.019 157.739 626.502 157.79 627.047 157.892C627.598 157.989 628.129 158.19 628.641 158.497C629.158 158.804 629.587 159.267 629.928 159.886C630.269 160.506 630.439 161.335 630.439 162.375V171H628.428V169.227H628.325C628.189 169.511 627.962 169.815 627.644 170.139C627.325 170.463 626.902 170.739 626.374 170.966C625.845 171.193 625.2 171.307 624.439 171.307ZM624.746 169.5C625.541 169.5 626.212 169.344 626.757 169.031C627.308 168.719 627.723 168.315 628.002 167.821C628.286 167.327 628.428 166.807 628.428 166.261V164.42C628.342 164.523 628.155 164.616 627.865 164.702C627.581 164.781 627.252 164.852 626.877 164.915C626.507 164.972 626.146 165.023 625.794 165.068C625.448 165.108 625.166 165.142 624.95 165.17C624.428 165.239 623.939 165.349 623.484 165.503C623.036 165.651 622.672 165.875 622.394 166.176C622.121 166.472 621.984 166.875 621.984 167.386C621.984 168.085 622.243 168.614 622.76 168.972C623.283 169.324 623.945 169.5 624.746 169.5ZM636.122 163.125V171H634.11V153.545H636.122V159.955H636.292C636.599 159.278 637.059 158.741 637.673 158.344C638.292 157.94 639.116 157.739 640.144 157.739C641.036 157.739 641.818 157.918 642.488 158.276C643.158 158.628 643.678 159.17 644.048 159.903C644.423 160.631 644.61 161.557 644.61 162.682V171H642.599V162.818C642.599 161.778 642.329 160.974 641.789 160.406C641.255 159.832 640.514 159.545 639.565 159.545C638.906 159.545 638.315 159.685 637.792 159.963C637.275 160.241 636.866 160.648 636.565 161.182C636.269 161.716 636.122 162.364 636.122 163.125ZM648.29 171V157.909H650.301V171H648.29ZM649.313 155.727C648.921 155.727 648.582 155.594 648.298 155.327C648.02 155.06 647.881 154.739 647.881 154.364C647.881 153.989 648.02 153.668 648.298 153.401C648.582 153.134 648.921 153 649.313 153C649.705 153 650.04 153.134 650.318 153.401C650.602 153.668 650.744 153.989 650.744 154.364C650.744 154.739 650.602 155.06 650.318 155.327C650.04 155.594 649.705 155.727 649.313 155.727ZM661.008 171V153.545H671.542V155.42H663.122V161.318H670.997V163.193H663.122V169.125H671.678V171H661.008ZM680.022 171.273C678.931 171.273 677.968 170.997 677.133 170.446C676.298 169.889 675.644 169.105 675.173 168.094C674.701 167.077 674.465 165.875 674.465 164.489C674.465 163.114 674.701 161.92 675.173 160.909C675.644 159.898 676.301 159.116 677.141 158.565C677.982 158.014 678.954 157.739 680.056 157.739C680.908 157.739 681.582 157.881 682.076 158.165C682.576 158.443 682.957 158.761 683.218 159.119C683.485 159.472 683.693 159.761 683.84 159.989H684.011V153.545H686.022V171H684.079V168.989H683.84C683.693 169.227 683.482 169.528 683.21 169.892C682.937 170.25 682.548 170.571 682.042 170.855C681.536 171.134 680.863 171.273 680.022 171.273ZM680.295 169.466C681.102 169.466 681.783 169.256 682.34 168.835C682.897 168.409 683.32 167.821 683.61 167.071C683.9 166.315 684.045 165.443 684.045 164.455C684.045 163.477 683.903 162.622 683.619 161.889C683.335 161.151 682.914 160.577 682.357 160.168C681.801 159.753 681.113 159.545 680.295 159.545C679.443 159.545 678.732 159.764 678.164 160.202C677.602 160.634 677.178 161.222 676.894 161.966C676.616 162.705 676.477 163.534 676.477 164.455C676.477 165.386 676.619 166.233 676.903 166.994C677.193 167.75 677.619 168.352 678.181 168.801C678.749 169.244 679.454 169.466 680.295 169.466ZM698.235 165.648V157.909H700.247V171H698.235V168.784H698.099C697.792 169.449 697.315 170.014 696.667 170.48C696.019 170.94 695.201 171.17 694.212 171.17C693.394 171.17 692.667 170.991 692.031 170.634C691.394 170.27 690.894 169.724 690.531 168.997C690.167 168.264 689.985 167.341 689.985 166.227V157.909H691.997V166.091C691.997 167.045 692.264 167.807 692.798 168.375C693.337 168.943 694.025 169.227 694.86 169.227C695.36 169.227 695.869 169.099 696.386 168.844C696.908 168.588 697.346 168.196 697.698 167.668C698.056 167.139 698.235 166.466 698.235 165.648ZM713.749 157.909C713.646 157.045 713.232 156.375 712.504 155.898C711.777 155.42 710.885 155.182 709.828 155.182C709.056 155.182 708.379 155.307 707.8 155.557C707.226 155.807 706.777 156.151 706.453 156.588C706.135 157.026 705.976 157.523 705.976 158.08C705.976 158.545 706.087 158.946 706.308 159.281C706.536 159.611 706.825 159.886 707.178 160.108C707.53 160.324 707.899 160.503 708.286 160.645C708.672 160.781 709.027 160.892 709.351 160.977L711.124 161.455C711.578 161.574 712.084 161.739 712.641 161.949C713.203 162.159 713.74 162.446 714.252 162.81C714.769 163.168 715.195 163.628 715.53 164.19C715.865 164.753 716.033 165.443 716.033 166.261C716.033 167.205 715.786 168.057 715.291 168.818C714.803 169.58 714.087 170.185 713.144 170.634C712.206 171.082 711.067 171.307 709.726 171.307C708.476 171.307 707.394 171.105 706.479 170.702C705.57 170.298 704.854 169.736 704.331 169.014C703.814 168.293 703.521 167.455 703.453 166.5H705.635C705.692 167.159 705.913 167.705 706.3 168.136C706.692 168.562 707.186 168.881 707.783 169.091C708.385 169.295 709.033 169.398 709.726 169.398C710.533 169.398 711.257 169.267 711.899 169.006C712.541 168.739 713.05 168.369 713.425 167.898C713.8 167.42 713.987 166.864 713.987 166.227C713.987 165.648 713.825 165.176 713.502 164.812C713.178 164.449 712.752 164.153 712.223 163.926C711.695 163.699 711.124 163.5 710.51 163.33L708.362 162.716C706.999 162.324 705.919 161.764 705.124 161.037C704.328 160.31 703.931 159.358 703.931 158.182C703.931 157.205 704.195 156.352 704.723 155.625C705.257 154.892 705.973 154.324 706.871 153.92C707.774 153.511 708.783 153.307 709.896 153.307C711.021 153.307 712.021 153.509 712.896 153.912C713.771 154.31 714.465 154.855 714.976 155.548C715.493 156.241 715.766 157.028 715.794 157.909H713.749ZM724.553 171.273C723.326 171.273 722.269 170.983 721.383 170.403C720.497 169.824 719.815 169.026 719.337 168.009C718.86 166.991 718.622 165.83 718.622 164.523C718.622 163.193 718.866 162.02 719.355 161.003C719.849 159.98 720.536 159.182 721.417 158.608C722.303 158.028 723.337 157.739 724.519 157.739C725.44 157.739 726.269 157.909 727.008 158.25C727.747 158.591 728.352 159.068 728.823 159.682C729.295 160.295 729.587 161.011 729.701 161.83H727.69C727.536 161.233 727.195 160.705 726.667 160.244C726.144 159.778 725.44 159.545 724.553 159.545C723.769 159.545 723.082 159.75 722.491 160.159C721.906 160.562 721.448 161.134 721.119 161.872C720.795 162.605 720.633 163.466 720.633 164.455C720.633 165.466 720.792 166.347 721.11 167.097C721.434 167.847 721.889 168.429 722.474 168.844C723.065 169.259 723.758 169.466 724.553 169.466C725.076 169.466 725.551 169.375 725.977 169.193C726.403 169.011 726.764 168.75 727.059 168.409C727.355 168.068 727.565 167.659 727.69 167.182H729.701C729.587 167.955 729.306 168.651 728.857 169.27C728.414 169.884 727.826 170.372 727.093 170.736C726.366 171.094 725.519 171.273 724.553 171.273ZM736.494 171.307C735.664 171.307 734.911 171.151 734.235 170.838C733.559 170.52 733.022 170.062 732.624 169.466C732.227 168.864 732.028 168.136 732.028 167.284C732.028 166.534 732.176 165.926 732.471 165.46C732.766 164.989 733.161 164.619 733.656 164.352C734.15 164.085 734.695 163.886 735.292 163.756C735.894 163.619 736.499 163.511 737.107 163.432C737.903 163.33 738.548 163.253 739.042 163.202C739.542 163.145 739.906 163.051 740.133 162.92C740.366 162.79 740.482 162.562 740.482 162.239V162.17C740.482 161.33 740.252 160.676 739.792 160.21C739.337 159.744 738.647 159.511 737.721 159.511C736.761 159.511 736.008 159.722 735.462 160.142C734.917 160.562 734.533 161.011 734.312 161.489L732.403 160.807C732.744 160.011 733.198 159.392 733.766 158.949C734.34 158.5 734.965 158.187 735.641 158.011C736.323 157.83 736.994 157.739 737.653 157.739C738.073 157.739 738.556 157.79 739.102 157.892C739.653 157.989 740.184 158.19 740.695 158.497C741.212 158.804 741.641 159.267 741.982 159.886C742.323 160.506 742.494 161.335 742.494 162.375V171H740.482V169.227H740.38C740.244 169.511 740.016 169.815 739.698 170.139C739.38 170.463 738.957 170.739 738.428 170.966C737.9 171.193 737.255 171.307 736.494 171.307ZM736.801 169.5C737.596 169.5 738.266 169.344 738.812 169.031C739.363 168.719 739.778 168.315 740.056 167.821C740.34 167.327 740.482 166.807 740.482 166.261V164.42C740.397 164.523 740.21 164.616 739.92 164.702C739.636 164.781 739.306 164.852 738.931 164.915C738.562 164.972 738.201 165.023 737.849 165.068C737.502 165.108 737.221 165.142 737.005 165.17C736.482 165.239 735.994 165.349 735.539 165.503C735.09 165.651 734.727 165.875 734.448 166.176C734.176 166.472 734.039 166.875 734.039 167.386C734.039 168.085 734.298 168.614 734.815 168.972C735.337 169.324 735.999 169.5 736.801 169.5ZM748.176 163.125V171H746.165V157.909H748.108V159.955H748.279C748.585 159.29 749.051 158.756 749.676 158.352C750.301 157.943 751.108 157.739 752.097 157.739C752.983 157.739 753.759 157.92 754.423 158.284C755.088 158.642 755.605 159.188 755.975 159.92C756.344 160.648 756.529 161.568 756.529 162.682V171H754.517V162.818C754.517 161.79 754.25 160.989 753.716 160.415C753.182 159.835 752.449 159.545 751.517 159.545C750.875 159.545 750.301 159.685 749.796 159.963C749.296 160.241 748.901 160.648 748.611 161.182C748.321 161.716 748.176 162.364 748.176 163.125ZM771.897 171.273C770.806 171.273 769.843 170.997 769.008 170.446C768.173 169.889 767.519 169.105 767.048 168.094C766.576 167.077 766.34 165.875 766.34 164.489C766.34 163.114 766.576 161.92 767.048 160.909C767.519 159.898 768.176 159.116 769.016 158.565C769.857 158.014 770.829 157.739 771.931 157.739C772.783 157.739 773.457 157.881 773.951 158.165C774.451 158.443 774.832 158.761 775.093 159.119C775.36 159.472 775.568 159.761 775.715 159.989H775.886V153.545H777.897V171H775.954V168.989H775.715C775.568 169.227 775.357 169.528 775.085 169.892C774.812 170.25 774.423 170.571 773.917 170.855C773.411 171.134 772.738 171.273 771.897 171.273ZM772.17 169.466C772.977 169.466 773.658 169.256 774.215 168.835C774.772 168.409 775.195 167.821 775.485 167.071C775.775 166.315 775.92 165.443 775.92 164.455C775.92 163.477 775.778 162.622 775.494 161.889C775.21 161.151 774.789 160.577 774.232 160.168C773.676 159.753 772.988 159.545 772.17 159.545C771.318 159.545 770.607 159.764 770.039 160.202C769.477 160.634 769.053 161.222 768.769 161.966C768.491 162.705 768.352 163.534 768.352 164.455C768.352 165.386 768.494 166.233 768.778 166.994C769.068 167.75 769.494 168.352 770.056 168.801C770.624 169.244 771.329 169.466 772.17 169.466ZM785.712 171.307C784.883 171.307 784.13 171.151 783.454 170.838C782.778 170.52 782.241 170.062 781.843 169.466C781.445 168.864 781.247 168.136 781.247 167.284C781.247 166.534 781.394 165.926 781.69 165.46C781.985 164.989 782.38 164.619 782.874 164.352C783.369 164.085 783.914 163.886 784.511 163.756C785.113 163.619 785.718 163.511 786.326 163.432C787.122 163.33 787.766 163.253 788.261 163.202C788.761 163.145 789.124 163.051 789.352 162.92C789.585 162.79 789.701 162.562 789.701 162.239V162.17C789.701 161.33 789.471 160.676 789.011 160.21C788.556 159.744 787.866 159.511 786.94 159.511C785.98 159.511 785.227 159.722 784.681 160.142C784.136 160.562 783.752 161.011 783.531 161.489L781.622 160.807C781.962 160.011 782.417 159.392 782.985 158.949C783.559 158.5 784.184 158.187 784.86 158.011C785.542 157.83 786.212 157.739 786.872 157.739C787.292 157.739 787.775 157.79 788.32 157.892C788.872 157.989 789.403 158.19 789.914 158.497C790.431 158.804 790.86 159.267 791.201 159.886C791.542 160.506 791.712 161.335 791.712 162.375V171H789.701V169.227H789.599C789.462 169.511 789.235 169.815 788.917 170.139C788.599 170.463 788.176 170.739 787.647 170.966C787.119 171.193 786.474 171.307 785.712 171.307ZM786.019 169.5C786.815 169.5 787.485 169.344 788.031 169.031C788.582 168.719 788.997 168.315 789.275 167.821C789.559 167.327 789.701 166.807 789.701 166.261V164.42C789.616 164.523 789.428 164.616 789.139 164.702C788.855 164.781 788.525 164.852 788.15 164.915C787.781 164.972 787.42 165.023 787.068 165.068C786.721 165.108 786.44 165.142 786.224 165.17C785.701 165.239 785.212 165.349 784.758 165.503C784.309 165.651 783.945 165.875 783.667 166.176C783.394 166.472 783.258 166.875 783.258 167.386C783.258 168.085 783.516 168.614 784.033 168.972C784.556 169.324 785.218 169.5 786.019 169.5ZM797.395 163.125V171H795.384V157.909H797.327V159.955H797.497C797.804 159.29 798.27 158.756 798.895 158.352C799.52 157.943 800.327 157.739 801.315 157.739C802.202 157.739 802.977 157.92 803.642 158.284C804.307 158.642 804.824 159.188 805.193 159.92C805.563 160.648 805.747 161.568 805.747 162.682V171H803.736V162.818C803.736 161.79 803.469 160.989 802.935 160.415C802.401 159.835 801.668 159.545 800.736 159.545C800.094 159.545 799.52 159.685 799.014 159.963C798.514 160.241 798.119 160.648 797.83 161.182C797.54 161.716 797.395 162.364 797.395 163.125ZM815.491 155.42V153.545H828.582V155.42H823.093V171H820.98V155.42H815.491ZM835.161 171.273C833.9 171.273 832.812 170.994 831.897 170.438C830.988 169.875 830.286 169.091 829.792 168.085C829.303 167.074 829.059 165.898 829.059 164.557C829.059 163.216 829.303 162.034 829.792 161.011C830.286 159.983 830.974 159.182 831.855 158.608C832.741 158.028 833.775 157.739 834.957 157.739C835.639 157.739 836.312 157.852 836.977 158.08C837.641 158.307 838.247 158.676 838.792 159.188C839.337 159.693 839.772 160.364 840.096 161.199C840.42 162.034 840.582 163.062 840.582 164.284V165.136H830.491V163.398H838.536C838.536 162.659 838.389 162 838.093 161.42C837.803 160.841 837.389 160.384 836.849 160.048C836.315 159.713 835.684 159.545 834.957 159.545C834.156 159.545 833.462 159.744 832.877 160.142C832.298 160.534 831.852 161.045 831.539 161.676C831.227 162.307 831.07 162.983 831.07 163.705V164.864C831.07 165.852 831.241 166.69 831.582 167.378C831.928 168.06 832.408 168.58 833.022 168.938C833.636 169.29 834.349 169.466 835.161 169.466C835.69 169.466 836.167 169.392 836.593 169.244C837.025 169.091 837.397 168.864 837.71 168.562C838.022 168.256 838.264 167.875 838.434 167.42L840.377 167.966C840.173 168.625 839.829 169.205 839.346 169.705C838.863 170.199 838.266 170.585 837.556 170.864C836.846 171.136 836.048 171.273 835.161 171.273ZM843.641 171V157.909H845.585V159.955H845.755C846.028 159.256 846.468 158.713 847.076 158.327C847.684 157.935 848.414 157.739 849.266 157.739C850.13 157.739 850.849 157.935 851.423 158.327C852.002 158.713 852.454 159.256 852.778 159.955H852.914C853.249 159.278 853.752 158.741 854.423 158.344C855.093 157.94 855.897 157.739 856.835 157.739C858.005 157.739 858.962 158.105 859.707 158.838C860.451 159.565 860.823 160.699 860.823 162.239V171H858.812V162.239C858.812 161.273 858.548 160.582 858.019 160.168C857.491 159.753 856.869 159.545 856.153 159.545C855.232 159.545 854.519 159.824 854.014 160.381C853.508 160.932 853.255 161.631 853.255 162.477V171H851.21V162.034C851.21 161.29 850.968 160.69 850.485 160.236C850.002 159.776 849.38 159.545 848.619 159.545C848.096 159.545 847.607 159.685 847.153 159.963C846.704 160.241 846.34 160.628 846.062 161.122C845.789 161.611 845.653 162.176 845.653 162.818V171H843.641ZM872.751 165.648V157.909H874.762V171H872.751V168.784H872.614C872.308 169.449 871.83 170.014 871.183 170.48C870.535 170.94 869.717 171.17 868.728 171.17C867.91 171.17 867.183 170.991 866.546 170.634C865.91 170.27 865.41 169.724 865.046 168.997C864.683 168.264 864.501 167.341 864.501 166.227V157.909H866.512V166.091C866.512 167.045 866.779 167.807 867.313 168.375C867.853 168.943 868.541 169.227 869.376 169.227C869.876 169.227 870.384 169.099 870.901 168.844C871.424 168.588 871.862 168.196 872.214 167.668C872.572 167.139 872.751 166.466 872.751 165.648ZM880.321 166.227L880.287 163.739H880.696L886.423 157.909H888.912L882.81 164.08H882.639L880.321 166.227ZM878.446 171V153.545H880.457V171H878.446ZM886.764 171L881.651 164.523L883.082 163.125L889.321 171H886.764ZM895.353 171.307C894.524 171.307 893.771 171.151 893.095 170.838C892.418 170.52 891.882 170.062 891.484 169.466C891.086 168.864 890.887 168.136 890.887 167.284C890.887 166.534 891.035 165.926 891.33 165.46C891.626 164.989 892.021 164.619 892.515 164.352C893.009 164.085 893.555 163.886 894.151 163.756C894.754 163.619 895.359 163.511 895.967 163.432C896.762 163.33 897.407 163.253 897.901 163.202C898.401 163.145 898.765 163.051 898.992 162.92C899.225 162.79 899.342 162.562 899.342 162.239V162.17C899.342 161.33 899.112 160.676 898.651 160.21C898.197 159.744 897.507 159.511 896.58 159.511C895.62 159.511 894.867 159.722 894.322 160.142C893.776 160.562 893.393 161.011 893.171 161.489L891.262 160.807C891.603 160.011 892.058 159.392 892.626 158.949C893.2 158.5 893.825 158.187 894.501 158.011C895.183 157.83 895.853 157.739 896.512 157.739C896.933 157.739 897.416 157.79 897.961 157.892C898.512 157.989 899.043 158.19 899.555 158.497C900.072 158.804 900.501 159.267 900.842 159.886C901.183 160.506 901.353 161.335 901.353 162.375V171H899.342V169.227H899.239C899.103 169.511 898.876 169.815 898.558 170.139C898.239 170.463 897.816 170.739 897.288 170.966C896.759 171.193 896.114 171.307 895.353 171.307ZM895.66 169.5C896.455 169.5 897.126 169.344 897.671 169.031C898.222 168.719 898.637 168.315 898.916 167.821C899.2 167.327 899.342 166.807 899.342 166.261V164.42C899.257 164.523 899.069 164.616 898.779 164.702C898.495 164.781 898.166 164.852 897.791 164.915C897.421 164.972 897.06 165.023 896.708 165.068C896.362 165.108 896.08 165.142 895.864 165.17C895.342 165.239 894.853 165.349 894.399 165.503C893.95 165.651 893.586 165.875 893.308 166.176C893.035 166.472 892.899 166.875 892.899 167.386C892.899 168.085 893.157 168.614 893.674 168.972C894.197 169.324 894.859 169.5 895.66 169.5ZM907.036 163.125V171H905.024V157.909H906.967V159.955H907.138C907.445 159.29 907.911 158.756 908.536 158.352C909.161 157.943 909.967 157.739 910.956 157.739C911.842 157.739 912.618 157.92 913.283 158.284C913.948 158.642 914.465 159.188 914.834 159.92C915.203 160.648 915.388 161.568 915.388 162.682V171H913.377V162.818C913.377 161.79 913.109 160.989 912.575 160.415C912.041 159.835 911.308 159.545 910.377 159.545C909.734 159.545 909.161 159.685 908.655 159.963C908.155 160.241 907.76 160.648 907.47 161.182C907.181 161.716 907.036 162.364 907.036 163.125ZM938.018 159C937.83 158.426 937.583 157.912 937.276 157.457C936.975 156.997 936.614 156.605 936.194 156.281C935.779 155.957 935.308 155.71 934.779 155.54C934.251 155.369 933.671 155.284 933.041 155.284C932.007 155.284 931.066 155.551 930.22 156.085C929.373 156.619 928.7 157.406 928.2 158.446C927.7 159.486 927.45 160.761 927.45 162.273C927.45 163.784 927.703 165.06 928.208 166.099C928.714 167.139 929.399 167.926 930.262 168.46C931.126 168.994 932.097 169.261 933.177 169.261C934.177 169.261 935.058 169.048 935.819 168.622C936.586 168.19 937.183 167.582 937.609 166.798C938.041 166.009 938.257 165.08 938.257 164.011L938.904 164.148H933.654V162.273H940.302V164.148C940.302 165.585 939.995 166.835 939.382 167.898C938.774 168.96 937.933 169.784 936.859 170.369C935.791 170.949 934.563 171.239 933.177 171.239C931.632 171.239 930.274 170.875 929.103 170.148C927.938 169.42 927.029 168.386 926.376 167.045C925.728 165.705 925.404 164.114 925.404 162.273C925.404 160.892 925.589 159.651 925.958 158.548C926.333 157.44 926.862 156.497 927.543 155.719C928.225 154.94 929.032 154.344 929.964 153.929C930.896 153.514 931.921 153.307 933.041 153.307C933.961 153.307 934.819 153.446 935.614 153.724C936.416 153.997 937.129 154.386 937.754 154.892C938.384 155.392 938.91 155.991 939.33 156.69C939.751 157.384 940.041 158.153 940.2 159H938.018ZM947.502 171.307C946.672 171.307 945.919 171.151 945.243 170.838C944.567 170.52 944.03 170.062 943.632 169.466C943.234 168.864 943.036 168.136 943.036 167.284C943.036 166.534 943.183 165.926 943.479 165.46C943.774 164.989 944.169 164.619 944.663 164.352C945.158 164.085 945.703 163.886 946.3 163.756C946.902 163.619 947.507 163.511 948.115 163.432C948.911 163.33 949.556 163.253 950.05 163.202C950.55 163.145 950.913 163.051 951.141 162.92C951.374 162.79 951.49 162.562 951.49 162.239V162.17C951.49 161.33 951.26 160.676 950.8 160.21C950.345 159.744 949.655 159.511 948.729 159.511C947.769 159.511 947.016 159.722 946.47 160.142C945.925 160.562 945.541 161.011 945.32 161.489L943.411 160.807C943.752 160.011 944.206 159.392 944.774 158.949C945.348 158.5 945.973 158.187 946.649 158.011C947.331 157.83 948.002 157.739 948.661 157.739C949.081 157.739 949.564 157.79 950.109 157.892C950.661 157.989 951.192 158.19 951.703 158.497C952.22 158.804 952.649 159.267 952.99 159.886C953.331 160.506 953.502 161.335 953.502 162.375V171H951.49V169.227H951.388C951.252 169.511 951.024 169.815 950.706 170.139C950.388 170.463 949.965 170.739 949.436 170.966C948.908 171.193 948.263 171.307 947.502 171.307ZM947.808 169.5C948.604 169.5 949.274 169.344 949.82 169.031C950.371 168.719 950.786 168.315 951.064 167.821C951.348 167.327 951.49 166.807 951.49 166.261V164.42C951.405 164.523 951.217 164.616 950.928 164.702C950.644 164.781 950.314 164.852 949.939 164.915C949.57 164.972 949.209 165.023 948.857 165.068C948.51 165.108 948.229 165.142 948.013 165.17C947.49 165.239 947.002 165.349 946.547 165.503C946.098 165.651 945.734 165.875 945.456 166.176C945.183 166.472 945.047 166.875 945.047 167.386C945.047 168.085 945.306 168.614 945.823 168.972C946.345 169.324 947.007 169.5 947.808 169.5ZM957.999 175.909C957.658 175.909 957.355 175.881 957.087 175.824C956.82 175.773 956.636 175.722 956.533 175.67L957.045 173.898C957.533 174.023 957.965 174.068 958.34 174.034C958.715 174 959.048 173.832 959.337 173.531C959.633 173.236 959.903 172.756 960.147 172.091L960.522 171.068L955.681 157.909H957.863L961.477 168.341H961.613L965.227 157.909H967.408L961.852 172.909C961.602 173.585 961.292 174.145 960.923 174.588C960.553 175.037 960.124 175.369 959.636 175.585C959.153 175.801 958.607 175.909 957.999 175.909ZM973.517 171.307C972.688 171.307 971.935 171.151 971.259 170.838C970.582 170.52 970.046 170.062 969.648 169.466C969.25 168.864 969.051 168.136 969.051 167.284C969.051 166.534 969.199 165.926 969.494 165.46C969.79 164.989 970.185 164.619 970.679 164.352C971.173 164.085 971.719 163.886 972.315 163.756C972.918 163.619 973.523 163.511 974.131 163.432C974.926 163.33 975.571 163.253 976.065 163.202C976.565 163.145 976.929 163.051 977.156 162.92C977.389 162.79 977.506 162.562 977.506 162.239V162.17C977.506 161.33 977.276 160.676 976.815 160.21C976.361 159.744 975.671 159.511 974.744 159.511C973.784 159.511 973.031 159.722 972.486 160.142C971.94 160.562 971.557 161.011 971.335 161.489L969.426 160.807C969.767 160.011 970.222 159.392 970.79 158.949C971.364 158.5 971.989 158.187 972.665 158.011C973.347 157.83 974.017 157.739 974.676 157.739C975.097 157.739 975.58 157.79 976.125 157.892C976.676 157.989 977.207 158.19 977.719 158.497C978.236 158.804 978.665 159.267 979.006 159.886C979.347 160.506 979.517 161.335 979.517 162.375V171H977.506V169.227H977.404C977.267 169.511 977.04 169.815 976.722 170.139C976.404 170.463 975.98 170.739 975.452 170.966C974.923 171.193 974.279 171.307 973.517 171.307ZM973.824 169.5C974.619 169.5 975.29 169.344 975.835 169.031C976.386 168.719 976.801 168.315 977.08 167.821C977.364 167.327 977.506 166.807 977.506 166.261V164.42C977.421 164.523 977.233 164.616 976.943 164.702C976.659 164.781 976.33 164.852 975.955 164.915C975.585 164.972 975.225 165.023 974.872 165.068C974.526 165.108 974.244 165.142 974.029 165.17C973.506 165.239 973.017 165.349 972.563 165.503C972.114 165.651 971.75 165.875 971.472 166.176C971.199 166.472 971.063 166.875 971.063 167.386C971.063 168.085 971.321 168.614 971.838 168.972C972.361 169.324 973.023 169.5 973.824 169.5ZM990.211 171V153.545H996.313C997.529 153.545 998.532 153.756 999.322 154.176C1000.11 154.591 1000.7 155.151 1001.09 155.855C1001.47 156.554 1001.67 157.33 1001.67 158.182C1001.67 158.932 1001.53 159.551 1001.27 160.04C1001 160.528 1000.66 160.915 1000.23 161.199C999.799 161.483 999.336 161.693 998.836 161.83V162C999.37 162.034 999.907 162.222 1000.45 162.562C1000.99 162.903 1001.44 163.392 1001.8 164.028C1002.17 164.665 1002.35 165.443 1002.35 166.364C1002.35 167.239 1002.15 168.026 1001.75 168.724C1001.35 169.423 1000.73 169.977 999.867 170.386C999.009 170.795 997.893 171 996.518 171H990.211ZM992.325 169.125H996.518C997.899 169.125 998.879 168.858 999.458 168.324C1000.04 167.784 1000.34 167.131 1000.34 166.364C1000.34 165.773 1000.19 165.227 999.884 164.727C999.583 164.222 999.154 163.818 998.597 163.517C998.041 163.21 997.382 163.057 996.62 163.057H992.325V169.125ZM992.325 161.216H996.245C996.882 161.216 997.455 161.091 997.967 160.841C998.484 160.591 998.893 160.239 999.194 159.784C999.501 159.33 999.654 158.795 999.654 158.182C999.654 157.415 999.387 156.764 998.853 156.23C998.319 155.69 997.472 155.42 996.313 155.42H992.325V161.216ZM1011.04 171.273C1009.77 171.273 1008.69 170.994 1007.77 170.438C1006.86 169.875 1006.16 169.091 1005.67 168.085C1005.18 167.074 1004.93 165.898 1004.93 164.557C1004.93 163.216 1005.18 162.034 1005.67 161.011C1006.16 159.983 1006.85 159.182 1007.73 158.608C1008.62 158.028 1009.65 157.739 1010.83 157.739C1011.51 157.739 1012.19 157.852 1012.85 158.08C1013.52 158.307 1014.12 158.676 1014.67 159.188C1015.21 159.693 1015.65 160.364 1015.97 161.199C1016.29 162.034 1016.46 163.062 1016.46 164.284V165.136H1006.37V163.398H1014.41C1014.41 162.659 1014.26 162 1013.97 161.42C1013.68 160.841 1013.26 160.384 1012.72 160.048C1012.19 159.713 1011.56 159.545 1010.83 159.545C1010.03 159.545 1009.34 159.744 1008.75 160.142C1008.17 160.534 1007.73 161.045 1007.41 161.676C1007.1 162.307 1006.95 162.983 1006.95 163.705V164.864C1006.95 165.852 1007.12 166.69 1007.46 167.378C1007.8 168.06 1008.28 168.58 1008.9 168.938C1009.51 169.29 1010.22 169.466 1011.04 169.466C1011.56 169.466 1012.04 169.392 1012.47 169.244C1012.9 169.091 1013.27 168.864 1013.58 168.562C1013.9 168.256 1014.14 167.875 1014.31 167.42L1016.25 167.966C1016.05 168.625 1015.7 169.205 1015.22 169.705C1014.74 170.199 1014.14 170.585 1013.43 170.864C1012.72 171.136 1011.92 171.273 1011.04 171.273ZM1021.53 153.545V171H1019.52V153.545H1021.53ZM1029.06 171.307C1028.23 171.307 1027.48 171.151 1026.81 170.838C1026.13 170.52 1025.59 170.062 1025.19 169.466C1024.8 168.864 1024.6 168.136 1024.6 167.284C1024.6 166.534 1024.75 165.926 1025.04 165.46C1025.34 164.989 1025.73 164.619 1026.23 164.352C1026.72 164.085 1027.27 163.886 1027.86 163.756C1028.46 163.619 1029.07 163.511 1029.68 163.432C1030.47 163.33 1031.12 163.253 1031.61 163.202C1032.11 163.145 1032.48 163.051 1032.7 162.92C1032.94 162.79 1033.05 162.562 1033.05 162.239V162.17C1033.05 161.33 1032.82 160.676 1032.36 160.21C1031.91 159.744 1031.22 159.511 1030.29 159.511C1029.33 159.511 1028.58 159.722 1028.03 160.142C1027.49 160.562 1027.1 161.011 1026.88 161.489L1024.97 160.807C1025.31 160.011 1025.77 159.392 1026.34 158.949C1026.91 158.5 1027.54 158.187 1028.21 158.011C1028.89 157.83 1029.56 157.739 1030.22 157.739C1030.64 157.739 1031.13 157.79 1031.67 157.892C1032.22 157.989 1032.75 158.19 1033.27 158.497C1033.78 158.804 1034.21 159.267 1034.55 159.886C1034.89 160.506 1035.06 161.335 1035.06 162.375V171H1033.05V169.227H1032.95C1032.81 169.511 1032.59 169.815 1032.27 170.139C1031.95 170.463 1031.53 170.739 1031 170.966C1030.47 171.193 1029.83 171.307 1029.06 171.307ZM1029.37 169.5C1030.17 169.5 1030.84 169.344 1031.38 169.031C1031.93 168.719 1032.35 168.315 1032.63 167.821C1032.91 167.327 1033.05 166.807 1033.05 166.261V164.42C1032.97 164.523 1032.78 164.616 1032.49 164.702C1032.21 164.781 1031.88 164.852 1031.5 164.915C1031.13 164.972 1030.77 165.023 1030.42 165.068C1030.07 165.108 1029.79 165.142 1029.58 165.17C1029.05 165.239 1028.56 165.349 1028.11 165.503C1027.66 165.651 1027.3 165.875 1027.02 166.176C1026.75 166.472 1026.61 166.875 1026.61 167.386C1026.61 168.085 1026.87 168.614 1027.39 168.972C1027.91 169.324 1028.57 169.5 1029.37 169.5ZM1038.74 157.909H1040.75V171.955C1040.75 172.761 1040.61 173.46 1040.33 174.051C1040.06 174.642 1039.64 175.099 1039.08 175.423C1038.53 175.747 1037.84 175.909 1037 175.909C1036.93 175.909 1036.86 175.909 1036.79 175.909C1036.72 175.909 1036.66 175.909 1036.59 175.909V174.034C1036.66 174.034 1036.72 174.034 1036.77 174.034C1036.83 174.034 1036.89 174.034 1036.96 174.034C1037.58 174.034 1038.02 173.852 1038.31 173.489C1038.59 173.131 1038.74 172.619 1038.74 171.955V157.909ZM1039.72 155.727C1039.33 155.727 1038.99 155.594 1038.71 155.327C1038.43 155.06 1038.29 154.739 1038.29 154.364C1038.29 153.989 1038.43 153.668 1038.71 153.401C1038.99 153.134 1039.33 153 1039.72 153C1040.12 153 1040.45 153.134 1040.73 153.401C1041.01 153.668 1041.16 153.989 1041.16 154.364C1041.16 154.739 1041.01 155.06 1040.73 155.327C1040.45 155.594 1040.12 155.727 1039.72 155.727ZM1048.28 171.307C1047.45 171.307 1046.7 171.151 1046.02 170.838C1045.35 170.52 1044.81 170.062 1044.41 169.466C1044.02 168.864 1043.82 168.136 1043.82 167.284C1043.82 166.534 1043.96 165.926 1044.26 165.46C1044.56 164.989 1044.95 164.619 1045.44 164.352C1045.94 164.085 1046.48 163.886 1047.08 163.756C1047.68 163.619 1048.29 163.511 1048.9 163.432C1049.69 163.33 1050.34 163.253 1050.83 163.202C1051.33 163.145 1051.69 163.051 1051.92 162.92C1052.15 162.79 1052.27 162.562 1052.27 162.239V162.17C1052.27 161.33 1052.04 160.676 1051.58 160.21C1051.13 159.744 1050.44 159.511 1049.51 159.511C1048.55 159.511 1047.8 159.722 1047.25 160.142C1046.71 160.562 1046.32 161.011 1046.1 161.489L1044.19 160.807C1044.53 160.011 1044.99 159.392 1045.56 158.949C1046.13 158.5 1046.75 158.187 1047.43 158.011C1048.11 157.83 1048.78 157.739 1049.44 157.739C1049.86 157.739 1050.35 157.79 1050.89 157.892C1051.44 157.989 1051.97 158.19 1052.48 158.497C1053 158.804 1053.43 159.267 1053.77 159.886C1054.11 160.506 1054.28 161.335 1054.28 162.375V171H1052.27V169.227H1052.17C1052.03 169.511 1051.81 169.815 1051.49 170.139C1051.17 170.463 1050.75 170.739 1050.22 170.966C1049.69 171.193 1049.04 171.307 1048.28 171.307ZM1048.59 169.5C1049.39 169.5 1050.06 169.344 1050.6 169.031C1051.15 168.719 1051.57 168.315 1051.85 167.821C1052.13 167.327 1052.27 166.807 1052.27 166.261V164.42C1052.19 164.523 1052 164.616 1051.71 164.702C1051.42 164.781 1051.1 164.852 1050.72 164.915C1050.35 164.972 1049.99 165.023 1049.64 165.068C1049.29 165.108 1049.01 165.142 1048.79 165.17C1048.27 165.239 1047.78 165.349 1047.33 165.503C1046.88 165.651 1046.52 165.875 1046.24 166.176C1045.96 166.472 1045.83 166.875 1045.83 167.386C1045.83 168.085 1046.09 168.614 1046.6 168.972C1047.13 169.324 1047.79 169.5 1048.59 169.5ZM1057.95 171V157.909H1059.9V159.886H1060.03C1060.27 159.239 1060.7 158.713 1061.33 158.31C1061.95 157.906 1062.66 157.705 1063.44 157.705C1063.59 157.705 1063.77 157.707 1064 157.713C1064.22 157.719 1064.39 157.727 1064.5 157.739V159.784C1064.43 159.767 1064.27 159.741 1064.03 159.707C1063.79 159.668 1063.54 159.648 1063.27 159.648C1062.64 159.648 1062.07 159.781 1061.57 160.048C1061.07 160.31 1060.68 160.673 1060.39 161.139C1060.11 161.599 1059.97 162.125 1059.97 162.716V171H1057.95ZM1066.88 171V157.909H1068.83V159.955H1069C1069.27 159.256 1069.71 158.713 1070.32 158.327C1070.93 157.935 1071.66 157.739 1072.51 157.739C1073.37 157.739 1074.09 157.935 1074.66 158.327C1075.24 158.713 1075.7 159.256 1076.02 159.955H1076.16C1076.49 159.278 1076.99 158.741 1077.66 158.344C1078.34 157.94 1079.14 157.739 1080.08 157.739C1081.25 157.739 1082.2 158.105 1082.95 158.838C1083.69 159.565 1084.07 160.699 1084.07 162.239V171H1082.05V162.239C1082.05 161.273 1081.79 160.582 1081.26 160.168C1080.73 159.753 1080.11 159.545 1079.39 159.545C1078.47 159.545 1077.76 159.824 1077.26 160.381C1076.75 160.932 1076.5 161.631 1076.5 162.477V171H1074.45V162.034C1074.45 161.29 1074.21 160.69 1073.73 160.236C1073.24 159.776 1072.62 159.545 1071.86 159.545C1071.34 159.545 1070.85 159.685 1070.39 159.963C1069.95 160.241 1069.58 160.628 1069.3 161.122C1069.03 161.611 1068.89 162.176 1068.89 162.818V171H1066.88ZM1095.99 165.648V157.909H1098V171H1095.99V168.784H1095.86C1095.55 169.449 1095.07 170.014 1094.42 170.48C1093.78 170.94 1092.96 171.17 1091.97 171.17C1091.15 171.17 1090.42 170.991 1089.79 170.634C1089.15 170.27 1088.65 169.724 1088.29 168.997C1087.92 168.264 1087.74 167.341 1087.74 166.227V157.909H1089.75V166.091C1089.75 167.045 1090.02 167.807 1090.56 168.375C1091.1 168.943 1091.78 169.227 1092.62 169.227C1093.12 169.227 1093.63 169.099 1094.14 168.844C1094.67 168.588 1095.1 168.196 1095.46 167.668C1095.81 167.139 1095.99 166.466 1095.99 165.648ZM1111.1 153.545L1110.93 166.091H1108.95L1108.78 153.545H1111.1ZM1109.94 171.136C1109.52 171.136 1109.16 170.986 1108.86 170.685C1108.55 170.384 1108.4 170.023 1108.4 169.602C1108.4 169.182 1108.55 168.821 1108.86 168.52C1109.16 168.219 1109.52 168.068 1109.94 168.068C1110.36 168.068 1110.72 168.219 1111.02 168.52C1111.32 168.821 1111.47 169.182 1111.47 169.602C1111.47 169.881 1111.4 170.136 1111.26 170.369C1111.12 170.602 1110.94 170.79 1110.71 170.932C1110.48 171.068 1110.22 171.136 1109.94 171.136Z" fill="white"/>
<rect width="44.7609" height="43.2941" transform="matrix(0.856523 -0.51611 0.667755 0.744381 551.432 47.4371)" fill="#1AC6B2" fill-opacity="0.53"/>
<rect x="799.191" y="20" width="47.5854" height="40" fill="#1AC6B2" fill-opacity="0.53"/>
<rect x="1276.27" y="195" width="47.5854" height="40" fill="#1AC6B2" fill-opacity="0.53"/>
<ellipse cx="43.0875" cy="154.406" rx="16.5751" ry="12.4057" fill="#D9D9D9" fill-opacity="0.6"/>
<ellipse cx="137.163" cy="189.276" rx="16.5751" ry="12.4057" fill="#D9D9D9" fill-opacity="0.6"/>
<ellipse cx="90.5729" cy="188.605" rx="16.5751" ry="12.4057" fill="#D9D9D9" fill-opacity="0.6"/>
<ellipse cx="15.7835" cy="13.3983" rx="15.7835" ry="13.3983" transform="matrix(0.932224 0.361882 -0.569581 0.821935 36.0051 172.551)" fill="#D9D9D9" fill-opacity="0.6"/>
<ellipse cx="90.5729" cy="154.406" rx="16.5751" ry="12.4057" fill="#D9D9D9" fill-opacity="0.6"/>
<ellipse cx="137.163" cy="154.406" rx="16.5751" ry="12.4057" fill="#D9D9D9" fill-opacity="0.6"/>
<ellipse cx="187.064" cy="151.406" rx="16.5751" ry="12.4057" fill="#D9D9D9" fill-opacity="0.6"/>
<ellipse cx="281.139" cy="186.276" rx="16.5751" ry="12.4057" fill="#D9D9D9" fill-opacity="0.6"/>
<ellipse cx="234.549" cy="185.605" rx="16.5751" ry="12.4057" fill="#D9D9D9" fill-opacity="0.6"/>
<ellipse cx="15.7835" cy="13.3983" rx="15.7835" ry="13.3983" transform="matrix(0.932224 0.361882 -0.569581 0.821935 179.981 169.551)" fill="#D9D9D9" fill-opacity="0.6"/>
<ellipse cx="234.549" cy="151.406" rx="16.5751" ry="12.4057" fill="#D9D9D9" fill-opacity="0.6"/>
<ellipse cx="281.139" cy="151.406" rx="16.5751" ry="12.4057" fill="#D9D9D9" fill-opacity="0.6"/>
<ellipse cx="187.064" cy="83.4057" rx="16.5751" ry="12.4057" fill="#D9D9D9" fill-opacity="0.6"/>
<ellipse cx="281.139" cy="118.276" rx="16.5751" ry="12.4057" fill="#D9D9D9" fill-opacity="0.6"/>
<ellipse cx="234.549" cy="117.605" rx="16.5751" ry="12.4057" fill="#D9D9D9" fill-opacity="0.6"/>
<ellipse cx="15.7835" cy="13.3983" rx="15.7835" ry="13.3983" transform="matrix(0.932224 0.361882 -0.569581 0.821935 179.981 101.551)" fill="#D9D9D9" fill-opacity="0.6"/>
<ellipse cx="234.549" cy="83.4057" rx="16.5751" ry="12.4057" fill="#D9D9D9" fill-opacity="0.6"/>
<ellipse cx="281.139" cy="83.4057" rx="16.5751" ry="12.4057" fill="#D9D9D9" fill-opacity="0.6"/>
<ellipse cx="36.987" cy="81.4057" rx="16.5751" ry="12.4057" fill="#D9D9D9" fill-opacity="0.6"/>
<ellipse cx="131.062" cy="116.276" rx="16.5751" ry="12.4057" fill="#D9D9D9" fill-opacity="0.6"/>
<ellipse cx="84.4721" cy="115.605" rx="16.5751" ry="12.4057" fill="#D9D9D9" fill-opacity="0.6"/>
<ellipse cx="15.7835" cy="13.3983" rx="15.7835" ry="13.3983" transform="matrix(0.932224 0.361882 -0.569581 0.821935 29.9045 99.5513)" fill="#D9D9D9" fill-opacity="0.6"/>
<ellipse cx="84.4721" cy="81.4057" rx="16.5751" ry="12.4057" fill="#D9D9D9" fill-opacity="0.6"/>
<ellipse cx="131.062" cy="81.4057" rx="16.5751" ry="12.4057" fill="#D9D9D9" fill-opacity="0.6"/>
</svg>
